<svg height="512" viewBox="0 0 58 56" width="512" xmlns="http://www.w3.org/2000/svg"><g id="013---Alien" fill="none" transform="translate(-1)"><path id="Shape" d="m23.5 45.05c-1.2906682 2.8689844-1.534824 6.0996258-.69 9.13.126766.5708742-.0921269 1.1631244-.5596918 1.5143367-.4675648.3512124-1.097349.3964477-1.6103082.1156633-1.49-.81-3.37-2-5.18-5.81-1.2290296-2.5572964-1.0976697-5.5598092.35-8z" fill="#f0c419"/><path id="Shape" d="m14.22 38.66c-.09 2.15 1.38 3.54 3.39 4.34 4.25 1.7 10 4.22 11 0 .1683645-.6537238.2589913-1.3250331.27-2l-8.88-8z" fill="#f29c1f"/><path id="Shape" d="m44.19 42c1.4476697 2.4401908 1.5790296 5.4427036.35 8-1.81 3.78-3.69 5-5.18 5.81-.5129592.2807844-1.1427434.2355491-1.6103082-.1156633-.4675649-.3512123-.6864578-.9434625-.5596918-1.5143367.844824-3.0303742.6006682-6.2610156-.69-9.13z" fill="#f0c419"/><path id="Shape" d="m31.12 41c.0110087.6749669.1016355 1.3462762.27 2 1 4.2 6.7 1.71 11 0 2-.8 3.48-2.19 3.39-4.34l-5.78-5.66z" fill="#f29c1f"/><path id="Shape" d="m54.6 36c-7.06 9-8.07-1-15.13 2-7.65 3.25-7 3-9.86 3-2 0-2 0-9.08-3s-8.07 7-15.13-2c-4.63-5.91-5.92-11.1-2.4-18.47 4.76-9.75 15.25-17.53 27.39-17.53 11.23.19 21.78 7.63 26.61 17.53 3.45 7.23 2.36 12.39-2.4 18.47z" fill="#14a085"/><path id="Shape" d="m59 24.48c0 .09-.07.65-.08.74-.46 3.23-2.29 6.24-4.28 8.78-7.06 9-8.07-1-15.13 2-7.65 3.25-7 3-9.86 3-2 0-2 0-9.08-3s-8.11 7-15.17-2c-2.2-2.81-4.07-6-4.4-9.51.21681033-2.4390357.8955371-4.8145794 2-7 4.76-9.71 15.25-17.49 27.39-17.49 11.23.19 21.78 7.63 26.61 17.53 1.0887576 2.1738192 1.7667895 4.5299802 2 6.95z" fill="#26b99a"/><g fill="#2c3e50"><path id="Shape" d="m30 25c-1.7228832-.0016794-3.3235331-.8902485-4.2361116-2.3515937-.9125786-1.4613452-1.0085124-3.2895771-.2538884-4.8384063 2.7846097 1.6076952 6.2153903 1.6076952 9 0 .7561914 1.5520282.6582102 3.3843621-.2591802 4.8468981-.9173905 1.462536-2.5243814 2.3483283-4.2508198 2.3431019z"/><path id="Shape" d="m19 32c-1.7228832-.0016794-3.3235331-.8902485-4.2361116-2.3515937-.9125786-1.4613452-1.0085124-3.2895771-.2538884-4.8384063 2.7846097 1.6076952 6.2153903 1.6076952 9 0 .7561914 1.5520282.6582102 3.3843621-.2591802 4.8468981-.9173905 1.462536-2.5243814 2.3483283-4.2508198 2.3431019z"/><path id="Shape" d="m41 32c-1.7228832-.0016794-3.3235331-.8902485-4.2361116-2.3515937-.9125786-1.4613452-1.0085124-3.2895771-.2538884-4.8384063 2.7846097 1.6076952 6.2153903 1.6076952 9 0 .7561914 1.5520282.6582102 3.3843621-.2591802 4.8468981-.9173905 1.462536-2.5243814 2.3483283-4.2508198 2.3431019z"/></g><path id="Shape" d="m7 22c-.3313201.0176044-.64979914-.1302685-.85015156-.3947337-.20035241-.2644652-.2564878-.6110833-.14984844-.9252663 2.05247297-5.7884876 6.1638673-10.618931 11.55-13.57.3211808-.19326073.7234705-.1906728 1.0421383.00670406.3186678.19737687.5001928.55639283.4702434.93003682-.0299494.37364398-.2663431.69916172-.6123817.84325912-4.8565867 2.7616831-8.56368833 7.171183-10.45 12.43-.14299392.4253709-.55184764.7033915-1 .68z" fill="#81ccb8"/><circle id="Oval" cx="22" cy="6" fill="#81ccb8" r="1"/></g></svg>